HIERARCHY
ROOT Hips
{
	OFFSET 0.00000 0.00000 0.00000
	CHANNELS 6 Xposition Yposition Zposition Zrotation Yrotation Xrotation 
	JOINT LHipJoint
	{
		OFFSET 0 0 0
		CHANNELS 3 Zrotation Yrotation Xrotation
		JOINT LeftUpLeg
		{
			OFFSET 1.53927 -1.56553 0.51726
			CHANNELS 3 Zrotation Yrotation Xrotation
			JOINT LeftLeg
			{
				OFFSET 2.38199 -6.54447 0.00000
				CHANNELS 3 Zrotation Yrotation Xrotation
				JOINT LeftFoot
				{
					OFFSET 2.35499 -6.47028 0.00000
					CHANNELS 3 Zrotation Yrotation Xrotation
					JOINT LeftToeBase
					{
						OFFSET 0.13641 -0.37478 1.84251
						CHANNELS 3 Zrotation Yrotation Xrotation
						End Site
						{
							OFFSET 0.00000 -0.00000 0.95212
						}
					}
				}
			}
		}
	}
	JOINT RHipJoint
	{
		OFFSET 0 0 0
		CHANNELS 3 Zrotation Yrotation Xrotation
		JOINT RightUpLeg
		{
			OFFSET -1.43919 -1.56553 0.51726
			CHANNELS 3 Zrotation Yrotation Xrotation
			JOINT RightLeg
			{
				OFFSET -2.34860 -6.45274 0.00000
				CHANNELS 3 Zrotation Yrotation Xrotation
				JOINT RightFoot
				{
					OFFSET -2.25563 -6.19730 0.00000
					CHANNELS 3 Zrotation Yrotation Xrotation
					JOINT RightToeBase
					{
						OFFSET -0.19755 -0.54277 1.84912
						CHANNELS 3 Zrotation Yrotation Xrotation
						End Site
						{
							OFFSET -0.00000 -0.00000 0.97032
						}
					}
				}
			}
		}
	}
	JOINT LowerBack
	{
		OFFSET 0 0 0
		CHANNELS 3 Zrotation Yrotation Xrotation
		JOINT Spine
		{
			OFFSET -0.06402 1.88434 -0.00445
			CHANNELS 3 Zrotation Yrotation Xrotation
			JOINT Spine1
			{
				OFFSET 0.00756 1.88511 0.04237
				CHANNELS 3 Zrotation Yrotation Xrotation
				JOINT Neck
				{
					OFFSET 0 0 0
					CHANNELS 3 Zrotation Yrotation Xrotation
					JOINT Neck1
					{
						OFFSET -0.06230 1.34710 0.03308
						CHANNELS 3 Zrotation Yrotation Xrotation
						JOINT Head
						{
							OFFSET -0.02442 1.34501 -0.13654
							CHANNELS 3 Zrotation Yrotation Xrotation
							End Site
							{
								OFFSET -0.00508 1.35584 -0.05075
							}
						}
					}
				}
				JOINT LeftShoulder
				{
					OFFSET 0 0 0
					CHANNELS 3 Zrotation Yrotation Xrotation
					JOINT LeftArm
					{
						OFFSET 2.76911 0.54460 0.39412
						CHANNELS 3 Zrotation Yrotation Xrotation
						JOINT LeftForeArm
						{
							OFFSET 4.40919 -0.00000 -0.00000
							CHANNELS 3 Zrotation Yrotation Xrotation
							JOINT LeftHand
							{
								OFFSET 3.03857 -0.00000 -0.00000
								CHANNELS 3 Zrotation Yrotation Xrotation
								JOINT LeftFingerBase
								{
									OFFSET 0 0 0
									CHANNELS 3 Zrotation Yrotation Xrotation
									JOINT LeftHandIndex1
									{
										OFFSET 0.52321 -0.00000 -0.00000
										CHANNELS 3 Zrotation Yrotation Xrotation
										End Site
										{
											OFFSET 0.42182 -0.00000 -0.00000
										}
									}
								}
								JOINT LThumb
								{
									OFFSET 0 0 0
									CHANNELS 3 Zrotation Yrotation Xrotation
									End Site
									{
										OFFSET 0.42826 -0.00000 0.42826
									}
								}
							}
						}
					}
				}
				JOINT RightShoulder
				{
					OFFSET 0 0 0
					CHANNELS 3 Zrotation Yrotation Xrotation
					JOINT RightArm
					{
						OFFSET -2.99050 0.75949 0.48975
						CHANNELS 3 Zrotation Yrotation Xrotation
						JOINT RightForeArm
						{
							OFFSET -4.61969 -0.00000 -0.00000
							CHANNELS 3 Zrotation Yrotation Xrotation
							JOINT RightHand
							{
								OFFSET -3.09382 -0.00000 -0.00000
								CHANNELS 3 Zrotation Yrotation Xrotation
								JOINT RightFingerBase
								{
									OFFSET 0 0 0
									CHANNELS 3 Zrotation Yrotation Xrotation
									JOINT RightHandIndex1
									{
										OFFSET -0.50090 -0.00000 -0.00000
										CHANNELS 3 Zrotation Yrotation Xrotation
										End Site
										{
											OFFSET -0.40384 -0.00000 -0.00000
										}
									}
								}
								JOINT RThumb
								{
									OFFSET 0 0 0
									CHANNELS 3 Zrotation Yrotation Xrotation
									End Site
									{
										OFFSET -0.41000 -0.00000 0.41000
									}
								}
							}
						}
					}
				}
			}
		}
	}
}
MOTION
Frames: 16
Frame Time: .0083333
17.9891 16.1552 0.4559 0 0 0 0 0 0 -21 0 0 0 0 0 0 0 0 0 0 0 0 0 0 21 0 0 0 0 0 0 0 0 0 0 0 0 0 0 0 0 0 0 0 0 0 0 -16 0 0 21 0 0 11 0 0 0 -8 0 0 0 0 0 0 0 0 0 0 0 0 0 0 0 0 0 0 0 0 8 0 0 0 0 0 0 0 0 0 0 0 0 0 0 0 0 0
17.9891 16.1552 0.4559 15.3597 -79.5753 -8.0249 0.0000 0.0000 0.0000 -20.1815 -23.6365 -6.4354 1.7259 8.2701 23.5376 0.6627 3.4857 -17.0347 0.0625 1.6134 4.4383 0.0000 0.0000 0.0000 16.1888 16.9366 -7.0382 -1.7831 -8.3988 23.9320 -0.9275 -14.1151 -28.1867 -0.3933 -4.0269 11.1522 -5.6028 -1.1854 -4.4095 0.5341 -1.5726 -5.2398 3.6633 -0.6431 -2.7940 -3.5496 -2.4433 0.0877 -4.0132 -3.0496 7.9624 -0.7404 -1.7865 2.4894 -0.0000 0.0000 0.0000 -93.2182 19.7900 12.2211 23.1223 -34.2223 -7.2070 -0.0000 -0.0000 15.6000 20.0089 -14.7401 -5.2934 -7.1250 0.0000 -0.0000 -5.0986 14.3817 3.6873 -0.0000 0.0000 0.0000 86.3306 -18.7764 25.2149 -17.0529 26.9275 -4.1113 0.0000 0.0000 11.1475 -12.2783 -49.4371 9.3883 7.1250 -0.0000 -0.0000 54.1518 -74.3973 -40.2166
18.0011 16.1613 0.4374 15.2157 -79.2722 -7.7534 0.0000 0.0000 0.0000 -20.0455 -23.5970 -6.7941 1.7481 8.3205 23.6917 0.6736 3.1334 -16.9529 0.0474 1.4053 3.8649 0.0000 0.0000 0.0000 16.1152 16.7289 -7.2695 -1.7729 -8.3761 23.8625 -0.9055 -14.1442 -28.0563 -0.3557 -3.8315 10.6032 -5.6762 -1.2639 -4.4179 0.5544 -1.6807 -5.3321 3.7243 -0.6914 -2.8731 -3.3814 -2.4606 0.4173 -4.3178 -3.0829 7.8659 -0.8588 -1.8028 2.3901 -0.0000 -0.0000 0.0000 -93.2898 20.1855 12.2811 23.4886 -34.6188 -7.4140 -0.0000 -0.0000 15.5105 19.9169 -14.1969 -5.0781 -7.1250 0.0000 -0.0000 -5.1401 14.9616 3.6538 -0.0000 -0.0000 0.0000 86.1093 -19.0091 26.1601 -17.2242 27.1524 -4.1891 0.0000 0.0000 9.6371 -12.0322 -49.8791 9.2571 7.1250 -0.0000 -0.0000 55.7503 -74.5215 -41.6874
18.0112 16.1624 0.4180 14.8002 -79.0761 -7.3714 0.0000 0.0000 0.0000 -19.9171 -23.7240 -6.8379 1.7531 8.3318 23.7264 0.6759 2.9988 -16.9036 0.0577 1.5495 4.2622 0.0000 0.0000 0.0000 16.1959 16.6427 -7.3229 -1.7804 -8.3929 23.9139 -0.9146 -14.1219 -28.1006 -0.3323 -3.7047 10.2474 -5.6574 -1.2552 -4.3309 0.5562 -1.6696 -5.2693 3.7169 -0.6868 -2.8572 -3.4227 -2.4505 0.4855 -4.2791 -3.0764 7.8011 -0.8370 -1.7968 2.3575 0.0000 0.0000 0.0000 -93.1992 20.3375 12.6287 23.7857 -34.9368 -7.5835 -0.0000 -0.0000 15.3867 20.0542 -14.6723 -5.2826 -7.1250 0.0000 -0.0000 -5.0651 14.4482 3.6557 0.0000 0.0000 0.0000 86.0082 -18.9789 26.8350 -17.3780 27.3535 -4.2596 0.0000 0.0000 8.2170 -11.7379 -50.2479 9.0761 7.1250 -0.0000 -0.0000 57.1632 -74.5832 -42.9523
18.0207 16.1587 0.4013 14.5925 -78.9919 -7.1836 0.0000 0.0000 0.0000 -19.8119 -23.8643 -6.9381 1.7631 8.3540 23.7947 0.6679 2.9796 -16.8023 0.0749 1.7651 4.8570 0.0000 0.0000 0.0000 16.2445 16.5374 -7.4009 -1.7864 -8.4062 23.9547 -0.9198 -14.0555 -28.0726 -0.3071 -3.5626 9.8493 -5.6426 -1.1950 -4.2422 0.5684 -1.5887 -5.1916 3.7239 -0.6472 -2.8339 -3.5697 -2.4084 0.6748 -4.1145 -3.0447 7.5258 -0.7515 -1.7697 2.2373 0.0000 -0.0000 0.0000 -93.1113 20.5398 13.2193 24.2010 -35.3760 -7.8226 -0.0000 -0.0000 15.3758 20.5184 -15.0920 -5.5655 -7.1250 0.0000 -0.0000 -4.7688 13.9567 3.4902 0.0000 -0.0000 0.0000 85.8566 -18.7769 27.5416 -17.3867 27.3647 -4.2636 0.0000 0.0000 6.8369 -11.5899 -50.4727 8.9890 7.1250 -0.0000 -0.0000 58.0072 -74.6288 -43.7228
18.0353 16.1545 0.3839 14.4651 -78.8062 -6.9519 0.0000 0.0000 0.0000 -19.6541 -23.9558 -7.3238 1.7808 8.3938 23.9166 0.6521 2.8521 -16.5523 0.0577 1.5498 4.2631 0.0000 0.0000 0.0000 16.2303 16.4404 -7.6209 -1.7906 -8.4155 23.9834 -0.9034 -14.1311 -28.0289 -0.2886 -3.4547 9.5473 -5.6602 -1.2334 -4.1797 0.5908 -1.6435 -5.2074 3.7576 -0.6718 -2.8788 -3.3553 -2.5082 0.2105 -4.5530 -3.1228 7.7843 -0.9412 -1.8273 2.3965 0.0000 -0.0000 0.0000 -93.1045 20.9214 13.6146 24.7523 -35.9497 -8.1440 -0.0000 -0.0000 15.5223 20.5870 -14.5831 -5.4026 -7.1250 0.0000 -0.0000 -4.6994 14.4854 3.3861 0.0000 -0.0000 0.0000 85.5626 -18.4539 27.4472 -17.2448 27.1794 -4.1986 0.0000 0.0000 8.3268 -11.3841 -49.0425 8.6460 7.1250 -0.0000 -0.0000 53.6258 -73.8601 -39.2430
18.0498 16.1553 0.3652 13.9070 -78.4271 -6.2750 0.0000 0.0000 0.0000 -19.4242 -23.9691 -7.7406 1.8035 8.4443 24.0719 0.6675 2.4484 -16.5112 0.0355 1.2158 3.3428 0.0000 0.0000 0.0000 16.3161 16.3465 -7.8003 -1.7934 -8.4218 24.0027 -0.8610 -14.4301 -28.0199 -0.2788 -3.3962 9.3839 -5.5895 -1.3342 -4.1738 0.5782 -1.7803 -5.2220 3.7021 -0.7425 -2.8844 -3.3379 -2.5025 0.1894 -4.5769 -3.1164 7.6318 -0.9491 -1.8191 2.3490 0.0000 0.0000 0.0000 -92.9988 21.3345 13.9803 25.3444 -36.5540 -8.4942 -0.0000 -0.0000 15.5540 20.2390 -14.0848 -5.1272 -7.1250 0.0000 -0.0000 -4.9159 15.0467 3.4842 0.0000 0.0000 0.0000 85.3582 -18.3217 27.8050 -17.3499 27.3167 -4.2466 0.0000 0.0000 8.5471 -12.1930 -48.4620 9.1874 7.1250 -0.0000 -0.0000 51.2352 -73.8516 -37.2693
18.0695 16.1591 0.3533 13.4683 -78.5074 -5.6145 0.0000 0.0000 0.0000 -19.1435 -23.8912 -8.2103 1.8322 8.5075 24.2663 0.6821 2.2668 -16.5828 0.0464 1.3909 3.8250 0.0000 0.0000 0.0000 16.3283 16.3512 -8.2232 -1.7946 -8.4244 24.0107 -0.8171 -14.3855 -27.6537 -0.2672 -3.3251 9.1851 -5.3676 -1.2584 -4.3215 0.5573 -1.6772 -5.2414 3.5547 -0.7005 -2.8370 -3.4594 -2.4715 0.3939 -4.4472 -3.1021 7.2591 -0.8767 -1.7973 2.1930 0.0000 0.0000 0.0000 -92.8351 21.6118 14.4750 25.8343 -37.0446 -8.7877 -0.0000 -0.0000 15.4445 20.2257 -13.5948 -4.9496 -7.1250 0.0000 -0.0000 -4.9067 15.5638 3.4230 0.0000 0.0000 0.0000 85.1942 -18.2973 28.2431 -17.6104 27.6554 -4.3669 0.0000 0.0000 8.1825 -12.9223 -48.4699 9.7460 7.1250 -0.0000 -0.0000 50.6502 -74.1286 -37.0584
18.0859 16.1603 0.3419 13.3638 -78.5283 -5.3924 0.0000 0.0000 0.0000 -19.0020 -23.8477 -8.5531 1.8680 8.5856 24.5073 0.6880 2.0981 -16.5648 0.0697 1.7028 4.6850 0.0000 0.0000 0.0000 16.2964 16.3612 -8.4561 -1.7921 -8.4189 23.9937 -0.8211 -14.2379 -27.5341 -0.2953 -3.4944 9.6582 -5.2824 -1.2219 -4.4536 0.5641 -1.6178 -5.1582 3.5109 -0.6785 -2.6832 -4.0624 -2.2993 0.9892 -3.8661 -2.9556 6.3543 -0.5670 -1.6900 1.8107 0.0000 0.0000 0.0000 -92.7588 21.5591 14.7931 26.0360 -37.2443 -8.9094 -0.0000 -0.0000 15.6572 20.7053 -13.8220 -5.1598 -7.1250 0.0000 -0.0000 -4.5866 15.2761 3.2266 0.0000 0.0000 0.0000 84.9376 -18.0607 28.5562 -17.7322 27.8130 -4.4236 0.0000 0.0000 8.2073 -12.3072 -48.1633 9.2324 7.1250 -0.0000 -0.0000 50.2639 -73.7278 -36.3608
18.1026 16.1626 0.3295 13.4383 -78.4375 -5.3856 0.0000 0.0000 0.0000 -18.9221 -23.8752 -8.8879 1.9047 8.6646 24.7518 0.6887 1.9711 -16.5108 0.0970 2.0089 5.5303 0.0000 0.0000 0.0000 16.2377 16.2275 -8.6945 -1.7911 -8.4167 23.9869 -0.8057 -14.2282 -27.4095 -0.2895 -3.4603 9.5631 -5.2544 -1.2460 -4.4612 0.5874 -1.6436 -5.0648 3.5170 -0.6952 -2.5785 -4.3055 -2.1853 0.2440 -3.5307 -2.7504 6.8660 -0.4361 -1.6067 2.1181 0.0000 0.0000 0.0000 -92.7542 21.4891 15.0372 26.2359 -37.4407 -9.0307 -0.0000 -0.0000 15.9103 20.9820 -14.3286 -5.4217 -7.1250 0.0000 -0.0000 -4.4193 14.7118 3.1617 0.0000 0.0000 0.0000 84.5442 -17.7074 29.0704 -17.8218 27.9284 -4.4655 0.0000 0.0000 8.2445 -11.6874 -47.8383 8.7176 7.1250 -0.0000 -0.0000 49.8687 -73.3138 -35.6459
18.1240 16.1667 0.3172 13.2752 -78.2915 -5.1164 0.0000 0.0000 0.0000 -18.7745 -23.8955 -9.2913 1.9335 8.7262 24.9426 0.6878 1.7606 -16.3994 0.1480 2.4795 6.8327 0.0000 0.0000 0.0000 16.2171 16.0505 -9.0254 -1.7974 -8.4307 24.0301 -0.7694 -14.3260 -27.2388 -0.2626 -3.2967 9.1059 -5.1764 -1.2988 -4.3280 0.6300 -1.7220 -5.0758 3.5187 -0.7334 -2.6569 -4.0473 -2.1255 0.4107 -4.0122 -2.6801 6.2801 -0.6188 -1.5574 1.8864 0.0000 -0.0000 0.0000 -92.7649 21.8123 15.4467 26.7886 -37.9768 -9.3687 -0.0000 -0.0000 15.8310 20.9818 -14.0999 -5.3374 -7.1250 0.0000 -0.0000 -4.4092 14.9536 3.1316 0.0000 -0.0000 0.0000 84.0826 -17.5827 29.8021 -18.0759 28.2543 -4.5851 0.0000 0.0000 7.9668 -11.6903 -47.8857 8.7263 7.1250 -0.0000 -0.0000 49.9993 -73.3422 -35.7779
18.1468 16.1683 0.3058 13.0197 -78.2240 -4.7955 0.0000 0.0000 0.0000 -18.6102 -23.8893 -9.6829 1.9601 8.7824 25.1171 0.6951 1.4067 -16.3194 0.2021 2.8949 7.9864 0.0000 0.0000 0.0000 16.2361 15.9978 -9.2820 -1.8088 -8.4559 24.1076 -0.7517 -14.3548 -27.1350 -0.2682 -3.3316 9.2033 -5.0862 -1.2526 -4.1834 0.6489 -1.6699 -5.0938 3.4927 -0.7062 -2.7628 -3.7513 -2.2360 0.5813 -4.5106 -2.8316 6.0040 -0.8197 -1.6275 1.7558 0.0000 0.0000 0.0000 -92.6733 22.2135 16.0354 27.4430 -38.5984 -9.7742 -0.0000 -0.0000 15.8705 21.0672 -13.7907 -5.2465 -7.1250 0.0000 -0.0000 -4.3375 15.2719 3.0507 0.0000 0.0000 0.0000 83.7654 -17.6508 30.1961 -18.4196 28.6912 -4.7490 0.0000 0.0000 7.6682 -11.5887 -48.1083 8.6793 7.1250 -0.0000 -0.0000 50.7162 -73.4310 -36.4408
18.1677 16.1665 0.2959 12.9129 -78.1688 -4.6805 0.0000 0.0000 0.0000 -18.4982 -23.8968 -10.0406 1.9897 8.8447 25.3106 0.6952 1.0488 -16.1651 0.2519 3.2291 8.9173 0.0000 0.0000 0.0000 16.2350 15.9902 -9.4418 -1.8202 -8.4810 24.1848 -0.7598 -14.3014 -27.1412 -0.3098 -3.5785 9.8938 -5.0309 -1.1617 -4.1037 0.6306 -1.5506 -5.0423 3.4463 -0.6483 -2.7665 -3.6159 -2.3042 0.6570 -4.6566 -2.9278 5.8523 -0.8856 -1.6696 1.6892 -0.0000 -0.0000 0.0000 -92.4688 22.3164 16.5776 27.7890 -38.9213 -9.9909 -0.0000 -0.0000 16.1584 21.3096 -13.7015 -5.2789 -7.1250 0.0000 -0.0000 -4.1676 15.3413 2.9244 -0.0000 -0.0000 0.0000 83.5586 -17.6996 30.3905 -18.7969 29.1655 -4.9315 0.0000 0.0000 7.3900 -11.3408 -48.4200 8.5322 7.1250 -0.0000 -0.0000 51.8193 -73.5123 -37.4149
18.1901 16.1624 0.2850 12.9057 -77.9853 -4.6574 0.0000 0.0000 0.0000 -18.4060 -23.8741 -10.4228 2.0220 8.9118 25.5199 0.6976 0.5740 -15.9993 0.3139 3.6018 9.9591 0.0000 0.0000 0.0000 16.1991 15.9297 -9.6134 -1.8316 -8.5061 24.2622 -0.7632 -14.3185 -27.1840 -0.3415 -3.7554 10.3896 -5.0245 -1.1760 -3.9998 0.6235 -1.5720 -4.9972 3.4366 -0.6589 -2.7757 -3.4294 -2.2190 0.9833 -4.7503 -2.8494 5.3323 -0.9313 -1.6075 1.4626 0.0000 0.0000 0.0000 -92.2966 22.3035 16.9598 27.9635 -39.0826 -10.1007 -0.0000 -0.0000 16.4927 21.5943 -13.8818 -5.4247 -7.1250 0.0000 -0.0000 -3.9808 15.1199 2.8116 0.0000 0.0000 0.0000 83.2764 -17.6753 30.8008 -19.1488 29.6032 -5.1042 0.0000 0.0000 7.1795 -11.6060 -48.5995 8.7580 7.1250 -0.0000 -0.0000 52.1254 -73.7082 -37.8570
18.2131 16.1601 0.2739 13.1254 -77.8663 -4.8603 0.0000 0.0000 0.0000 -18.3675 -23.7856 -10.7450 2.0565 8.9828 25.7416 0.7101 0.0778 -15.9555 0.3912 4.0163 11.1227 0.0000 0.0000 0.0000 16.1242 15.9071 -9.7790 -1.8482 -8.5424 24.3740 -0.7628 -14.3281 -27.1914 -0.3512 -3.8074 10.5353 -5.1026 -1.2441 -3.8971 0.6858 -1.6609 -4.9285 3.5445 -0.7004 -2.7498 -3.6727 -2.1206 1.1035 -4.7074 -2.7442 4.8853 -0.8684 -1.5432 1.3047 -0.0000 -0.0000 0.0000 -92.2844 22.5449 17.4285 28.6035 -39.6659 -10.5067 -0.0000 -0.0000 16.6389 21.9903 -14.1019 -5.6194 -7.1250 0.0000 -0.0000 -3.7210 14.8429 2.6493 -0.0000 -0.0000 0.0000 82.7367 -17.5067 31.6706 -19.4116 29.9269 -5.2346 0.0000 0.0000 6.8840 -12.3167 -48.4311 9.2775 7.1250 -0.0000 -0.0000 51.0406 -73.8806 -37.1387
18.2359 16.1587 0.2627 13.2726 -77.8134 -4.9929 0.0000 0.0000 0.0000 -18.3089 -23.5343 -11.1264 2.0961 9.0634 25.9939 0.7200 -0.3446 -15.9219 0.4149 4.1346 11.4557 0.0000 0.0000 0.0000 16.0693 15.9156 -9.9507 -1.8702 -8.5903 24.5218 -0.7795 -14.2401 -27.2261 -0.3760 -3.9385 10.9037 -5.1766 -1.2961 -3.8317 0.7686 -1.7257 -4.8480 3.6709 -0.7307 -2.6923 -3.3562 -2.0766 1.3607 -5.0641 -2.7159 4.2801 -1.0189 -1.5062 1.0625 0.0000 0.0000 0.0000 -92.2689 22.8869 17.9313 29.3998 -40.3734 -11.0188 -0.0000 -0.0000 16.7071 22.3332 -14.2439 -5.7718 -7.1250 0.0000 -0.0000 -3.4946 14.6535 2.5016 0.0000 0.0000 0.0000 82.1797 -17.3317 32.4973 -19.6623 30.2334 -5.3603 0.0000 0.0000 6.6992 -12.5256 -48.2844 9.4160 7.1250 -0.0000 -0.0000 50.4325 -73.8771 -36.6404
